# Blender 3.3.1
# www.blender.org
mtllib Weld-All.mtl
o Body
v -2.819610 2.419610 -3.419610
v -2.819610 -4.419610 -3.419610
v 4.019610 2.419610 -3.419610
v 4.019610 -4.419610 -3.419610
v -2.819610 2.419610 3.419610
v -2.819610 -4.419610 3.419610
v 4.019610 2.419610 3.419610
v 4.019610 -4.419610 3.419610
vn -0.0000 1.0000 -0.0000
vn 1.0000 -0.0000 -0.0000
vn -0.0000 -0.0000 1.0000
vn -0.0000 -1.0000 -0.0000
vn -0.0000 -0.0000 -1.0000
vn -1.0000 -0.0000 -0.0000
vt 0.750000 1.000000
vt 0.500000 0.750000
vt 0.750000 0.750000
vt 0.500000 0.500000
vt 0.750000 0.500000
vt 0.750000 0.750000
vt 0.750000 0.250000
vt 0.250000 0.750000
vt 0.750000 0.000000
vt 0.750000 0.250000
vt 0.250000 0.500000
vt 0.500000 1.000000
vt 1.000000 0.750000
vt 0.500000 0.750000
vt 1.000000 0.500000
vt 0.500000 0.500000
vt 0.500000 0.750000
vt 0.500000 0.250000
vt 0.750000 0.750000
vt 0.500000 0.000000
vt 0.750000 0.500000
vt 0.500000 0.250000
s 0
usemtl Material.001
f 1/1/1 5/12/1 7/17/1 3/6/1
f 4/9/2 3/7/2 7/18/2 8/20/2
f 8/21/3 7/19/3 5/13/3 6/15/3
f 6/16/4 2/5/4 4/10/4 8/22/4
f 2/4/5 1/2/5 3/8/5 4/11/5
f 6/16/6 5/14/6 1/3/6 2/5/6
o Left__rail
v 4.013687 -4.957272 -3.419610
v 4.013687 -3.114391 -3.419610
v -2.825533 -4.957272 -3.419610
v -2.825533 -3.114391 -3.419610
v 4.013687 -4.957272 -4.787454
v 4.013687 -3.114391 -4.787454
v -2.825533 -4.957272 -4.787454
v -2.825533 -3.114391 -4.787454
v 1.638871 -0.880003 -3.419610
v -0.223562 -0.880003 -3.419610
v 1.638871 -0.880003 -4.787454
v -0.223562 -0.880003 -4.787454
vn -0.0000 -0.0000 1.0000
vn -1.0000 -0.0000 -0.0000
vn -0.0000 -0.0000 -1.0000
vn 1.0000 -0.0000 -0.0000
vn -0.0000 -1.0000 -0.0000
vn -0.6515 0.7587 -0.0000
vn -0.0000 1.0000 -0.0000
vn 0.6852 0.7283 -0.0000
vt 0.004608 0.407990
vt 0.186477 0.407102
vt 0.004339 0.407261
vt 0.253842 0.407102
vt 0.004608 0.475355
vt 0.071426 0.407556
vt 0.254608 0.407990
vt 0.003860 0.407102
vt 0.254339 0.407261
vt 0.071224 0.407102
vt 0.186661 0.406580
vt 0.254608 0.475355
vt 0.004608 0.407990
vt 0.186477 0.357102
vt 0.004339 0.357261
vt 0.253842 0.357102
vt 0.004608 0.475355
vt 0.071426 0.357556
vt 0.003860 0.357102
vt 0.254608 0.407990
vt 0.254339 0.357261
vt 0.071224 0.357102
vt 0.186661 0.356580
vt 0.254608 0.475355
vt 0.090852 0.407556
vt 0.091417 0.557030
vt 0.158235 0.407556
vt 0.091549 0.406580
vt 0.158931 0.407556
vt 0.159496 0.557030
vt 0.090852 0.357556
vt 0.091417 0.557030
vt 0.158235 0.357556
vt 0.091549 0.356580
vt 0.158931 0.357556
vt 0.159496 0.557030
s 0
usemtl Material.001
f 9/23/7 10/27/7 12/34/7 11/29/7
f 11/30/8 12/32/8 16/44/8 15/41/8
f 15/42/9 16/46/9 14/39/9 13/35/9
f 13/36/10 14/38/10 10/26/10 9/24/10
f 11/31/11 15/43/11 13/37/11 9/25/11
f 16/45/12 12/33/12 18/50/12 20/56/12
f 20/57/13 18/51/13 17/47/13 19/53/13
f 14/39/9 16/46/9 20/58/9 19/54/9
f 12/34/7 10/27/7 17/48/7 18/52/7
f 10/28/14 14/40/14 19/55/14 17/49/14
o Right_rail
v 4.013687 -4.957272 4.787455
v 4.013687 -3.114391 4.787455
v -2.825533 -4.957272 4.787455
v -2.825533 -3.114391 4.787455
v 4.013687 -4.957272 3.419610
v 4.013687 -3.114391 3.419610
v -2.825533 -4.957272 3.419610
v -2.825533 -3.114391 3.419610
v 1.638871 -0.880003 4.787455
v -0.223562 -0.880003 4.787455
v 1.638871 -0.880003 3.419610
v -0.223562 -0.880003 3.419610
vn -0.0000 -0.0000 1.0000
vn -1.0000 -0.0000 -0.0000
vn -0.0000 -0.0000 -1.0000
vn 1.0000 -0.0000 -0.0000
vn -0.0000 -1.0000 -0.0000
vn -0.6515 0.7587 -0.0000
vn -0.0000 1.0000 -0.0000
vn 0.6852 0.7283 -0.0000
vt 0.004359 0.408251
vt 0.094432 0.407363
vt 0.003114 0.407522
vt 0.161796 0.407363
vt 0.004359 0.475616
vt 0.003114 0.407522
vt 0.254359 0.408251
vt 0.094432 0.407363
vt 0.253114 0.407522
vt 0.161796 0.407363
vt 0.253114 0.407522
vt 0.254359 0.475616
vt 0.004359 0.408251
vt 0.094432 0.357363
vt 0.003114 0.357522
vt 0.161796 0.357363
vt 0.004359 0.475616
vt 0.003114 0.357522
vt 0.094432 0.357363
vt 0.254359 0.408251
vt 0.253114 0.357522
vt 0.161796 0.357363
vt 0.253114 0.357522
vt 0.254359 0.475616
vt 0.091168 0.557291
vt 0.089922 0.407522
vt 0.158002 0.407522
vt 0.159247 0.557291
vt 0.091168 0.557291
vt 0.089922 0.357522
vt 0.158002 0.357522
vt 0.159247 0.557291
s 0
usemtl Material.001
f 21/59/15 22/63/15 24/70/15 23/65/15
f 23/66/16 24/68/16 28/80/16 27/77/16
f 27/78/17 28/82/17 26/75/17 25/71/17
f 25/72/18 26/74/18 22/62/18 21/60/18
f 23/67/19 27/79/19 25/73/19 21/61/19
f 28/81/20 24/69/20 30/85/20 32/89/20
f 32/89/21 30/85/21 29/84/21 31/88/21
f 26/75/17 28/82/17 32/90/17 31/87/17
f 24/70/15 22/63/15 29/83/15 30/86/15
f 22/64/22 26/76/22 31/88/22 29/84/22
o Neck
v -0.558039 1.632156 0.341961
v -0.558039 4.367844 0.341961
v -1.241961 1.632156 0.341961
v -1.241961 4.367844 0.341961
v -0.558039 1.632156 -0.341961
v -0.558039 4.367844 -0.341961
v -1.241961 1.632156 -0.341961
v -1.241961 4.367844 -0.341961
vn -0.0000 -0.0000 1.0000
vn -1.0000 -0.0000 -0.0000
vn -0.0000 -0.0000 -1.0000
vn 1.0000 -0.0000 -0.0000
vn -0.0000 -1.0000 -0.0000
vn -0.0000 1.0000 -0.0000
vt 0.375000 0.000000
vt 0.375000 1.000000
vt 0.125000 0.750000
vt 0.625000 0.000000
vt 0.625000 1.000000
vt 0.875000 0.750000
vt 0.375000 0.250000
vt 0.125000 0.500000
vt 0.625000 0.250000
vt 0.875000 0.500000
vt 0.375000 0.750000
vt 0.625000 0.750000
vt 0.375000 0.500000
vt 0.625000 0.500000
s 0
usemtl Material.001
f 33/91/23 34/94/23 36/99/23 35/97/23
f 35/97/24 36/99/24 40/104/24 39/103/24
f 39/103/25 40/104/25 38/102/25 37/101/25
f 37/101/26 38/102/26 34/95/26 33/92/26
f 35/98/27 39/103/27 37/101/27 33/93/27
f 40/104/28 36/100/28 34/96/28 38/102/28
o Face
v -0.145097 3.145097 2.051766
v -0.145097 4.854902 2.051766
v -1.854903 3.145097 2.051766
v -1.854903 4.854902 2.051766
v -0.145097 3.145097 -2.051766
v -0.145097 4.854902 -2.051766
v -1.854903 3.145097 -2.051766
v -1.854903 4.854902 -2.051766
vn -0.0000 -0.0000 1.0000
vn -1.0000 -0.0000 -0.0000
vn -0.0000 -0.0000 -1.0000
vn 1.0000 -0.0000 -0.0000
vn -0.0000 -1.0000 -0.0000
vn -0.0000 1.0000 -0.0000
vt 0.943685 0.892904
vt 0.818359 0.787435
vt 0.818359 0.840169
vt 0.943685 0.944987
vt 0.818359 0.839518
vt 0.818359 0.945638
vt 0.995768 0.892904
vt 0.818359 0.892904
vt 0.818359 0.892253
vt 0.995768 0.944987
vt 0.818359 0.944987
vt 0.818359 0.997721
vt 0.765950 0.892904
vt 0.943359 0.787435
vt 0.943359 0.840169
vt 0.765950 0.944987
vt 0.943359 0.839518
vt 0.943359 0.945638
vt 0.943359 0.892904
vt 0.818034 0.892904
vt 0.943359 0.892253
vt 0.943359 0.944987
vt 0.818034 0.944987
vt 0.943359 0.997721
s 0
usemtl Material.001
f 41/105/29 42/108/29 44/114/29 43/111/29
f 43/112/30 44/115/30 48/126/30 47/123/30
f 47/124/31 48/127/31 46/120/31 45/117/31
f 45/118/32 46/121/32 42/109/32 41/106/32
f 43/113/33 47/125/33 45/119/33 41/107/33
f 48/128/34 44/116/34 42/110/34 46/122/34
o Left_arm
v 0.427717 1.512261 -3.419610
v -4.747909 -0.262239 -3.419610
v 0.760436 0.541831 -3.419610
v -4.415190 -1.232669 -3.419610
v 0.427717 1.512261 -4.445493
v -4.747909 -0.262239 -4.445493
v 0.760436 0.541831 -4.445493
v -4.415190 -1.232669 -4.445493
vn -0.0000 -0.0000 1.0000
vn 0.3243 -0.9459 -0.0000
vn -0.0000 -0.0000 -1.0000
vn -0.3243 0.9459 -0.0000
vn 0.9459 0.3243 -0.0000
vn -0.9459 -0.3243 -0.0000
vt 0.079263 0.859908
vt 0.000760 0.859908
vt 0.104908 0.947254
vt 0.079263 0.999467
vt 0.000760 0.999467
vt 0.104985 0.973530
vt 0.105430 0.859908
vt 0.053095 0.859908
vt 0.104908 0.973422
vt 0.105430 0.999467
vt 0.053095 0.999467
vt 0.104985 0.999698
vt 0.026928 0.859908
vt 0.131076 0.947254
vt 0.026928 0.999467
vt 0.131152 0.973530
vt 0.079263 0.859908
vt 0.053095 0.859908
vt 0.131076 0.973422
vt 0.079263 0.999467
vt 0.053095 0.999467
vt 0.131152 0.999698
s 0
usemtl Material.001
f 49/129/35 50/132/35 52/138/35 51/135/35
f 51/136/36 52/139/36 56/148/36 55/145/36
f 55/146/37 56/149/37 54/143/37 53/141/37
f 53/141/38 54/143/38 50/133/38 49/130/38
f 51/137/39 55/147/39 53/142/39 49/131/39
f 56/150/40 52/140/40 50/134/40 54/144/40
o Right_arm
v 0.427717 1.512261 4.445493
v -4.747909 -0.262239 4.445493
v 0.760436 0.541831 4.445493
v -4.415190 -1.232669 4.445493
v 0.427717 1.512261 3.419610
v -4.747909 -0.262239 3.419610
v 0.760436 0.541831 3.419610
v -4.415190 -1.232669 3.419610
vn -0.0000 -0.0000 1.0000
vn 0.3243 -0.9459 -0.0000
vn -0.0000 -0.0000 -1.0000
vn -0.3243 0.9459 -0.0000
vn 0.9459 0.3243 -0.0000
vn -0.9459 -0.3243 -0.0000
vt 0.078733 0.859859
vt 0.104971 0.947257
vt 0.078733 0.999713
vt 0.104956 0.973491
vt 0.104956 0.859859
vt 0.000065 0.859859
vt 0.104971 0.973480
vt 0.000065 0.999713
vt 0.104956 0.999713
vt 0.052511 0.859859
vt 0.131193 0.947257
vt 0.052511 0.999713
vt 0.131179 0.973491
vt 0.026288 0.859859
vt 0.131193 0.973480
vt 0.026288 0.999713
vt 0.131179 0.999713
s 0
usemtl Material.001
f 57/151/41 58/153/41 60/159/41 59/155/41
f 59/156/42 60/158/42 64/166/42 63/164/42
f 63/164/43 64/166/43 62/162/43 61/160/43
f 61/160/44 62/162/44 58/153/44 57/151/44
f 59/157/45 63/165/45 61/161/45 57/152/45
f 64/167/46 60/159/46 58/154/46 62/163/46
