# Blender v2.80 (sub 49) OBJ File: 'Weld-All.blend'
# www.blender.org
mtllib Weld-All.mtl
o Cube
v -2.825533 2.164752 -3.419610
v -2.825533 -4.674468 -3.419610
v 4.013687 2.164752 -3.419610
v 4.013687 -4.674468 -3.419610
v -2.825533 2.164752 3.419610
v -2.825533 -4.674468 3.419610
v 4.013687 2.164752 3.419610
v 4.013687 -4.674468 3.419610
vt 0.375000 0.000000
vt 0.625000 0.000000
vt 0.625000 0.250000
vt 0.375000 0.250000
vt 0.375000 0.250000
vt 0.625000 0.250000
vt 0.625000 0.500000
vt 0.375000 0.500000
vt 0.625000 0.750000
vt 0.375000 0.750000
vt 0.625000 0.750000
vt 0.625000 1.000000
vt 0.375000 1.000000
vt 0.125000 0.500000
vt 0.375000 0.500000
vt 0.375000 0.750000
vt 0.125000 0.750000
vt 0.625000 0.500000
vt 0.875000 0.500000
vt 0.875000 0.750000
vn 0.0000 1.0000 0.0000
vn 1.0000 0.0000 0.0000
vn 0.0000 0.0000 1.0000
vn 0.0000 -1.0000 0.0000
vn 0.0000 0.0000 -1.0000
vn -1.0000 0.0000 0.0000
usemtl Material.001
s off
f 1/1/1 5/2/1 7/3/1 3/4/1
f 4/5/2 3/6/2 7/7/2 8/8/2
f 8/8/3 7/7/3 5/9/3 6/10/3
f 6/10/4 2/11/4 4/12/4 8/13/4
f 2/14/5 1/15/5 3/16/5 4/17/5
f 6/18/6 5/19/6 1/20/6 2/11/6
o Left__rail_Cube.001
v 4.013687 -4.635258 -3.419610
v 4.013687 -2.792377 -3.419610
v -2.825533 -4.635258 -3.419610
v -2.825533 -2.792377 -3.419610
v 4.013687 -4.635258 -4.787454
v 4.013687 -2.792377 -4.787454
v -2.825533 -4.635258 -4.787454
v -2.825533 -2.792377 -4.787454
v 1.638871 -0.557989 -3.419610
v -0.223562 -0.557989 -3.419610
v 1.638871 -0.557989 -4.787454
v -0.223562 -0.557989 -4.787454
vt 0.375000 0.000000
vt 0.625000 0.000000
vt 0.625000 0.250000
vt 0.375000 0.250000
vt 0.625000 0.500000
vt 0.375000 0.500000
vt 0.625000 0.750000
vt 0.375000 0.750000
vt 0.625000 1.000000
vt 0.375000 1.000000
vt 0.125000 0.500000
vt 0.125000 0.750000
vt 0.625000 0.250000
vt 0.625000 0.500000
vt 0.875000 0.500000
vt 0.875000 0.750000
vt 0.625000 0.750000
vt 0.625000 0.000000
vt 0.625000 1.000000
vn 0.0000 0.0000 1.0000
vn -1.0000 0.0000 0.0000
vn 0.0000 0.0000 -1.0000
vn 1.0000 0.0000 0.0000
vn 0.0000 -1.0000 0.0000
vn -0.6515 0.7587 0.0000
vn 0.0000 1.0000 0.0000
vn 0.6852 0.7283 0.0000
usemtl Material.002
s off
f 9/21/7 10/22/7 12/23/7 11/24/7
f 11/24/8 12/23/8 16/25/8 15/26/8
f 15/26/9 16/25/9 14/27/9 13/28/9
f 13/28/10 14/27/10 10/29/10 9/30/10
f 11/31/11 15/26/11 13/28/11 9/32/11
f 16/25/12 12/23/12 18/33/12 20/34/12
f 20/34/13 18/35/13 17/36/13 19/37/13
f 14/27/9 16/25/9 20/34/9 19/37/9
f 12/23/7 10/22/7 17/38/7 18/33/7
f 10/29/14 14/27/14 19/37/14 17/39/14
o Right_rail_Cube.002
v 4.013687 -4.635258 4.787455
v 4.013687 -2.792377 4.787455
v -2.825533 -4.635258 4.787455
v -2.825533 -2.792377 4.787455
v 4.013687 -4.635258 3.419610
v 4.013687 -2.792377 3.419610
v -2.825533 -4.635258 3.419610
v -2.825533 -2.792377 3.419610
v 1.638871 -0.557989 4.787455
v -0.223562 -0.557989 4.787455
v 1.638871 -0.557989 3.419610
v -0.223562 -0.557989 3.419610
vt 0.375000 0.000000
vt 0.625000 0.000000
vt 0.625000 0.250000
vt 0.375000 0.250000
vt 0.625000 0.500000
vt 0.375000 0.500000
vt 0.625000 0.750000
vt 0.375000 0.750000
vt 0.625000 1.000000
vt 0.375000 1.000000
vt 0.125000 0.500000
vt 0.125000 0.750000
vt 0.625000 0.250000
vt 0.625000 0.500000
vt 0.875000 0.500000
vt 0.875000 0.750000
vt 0.625000 0.750000
vt 0.625000 0.000000
vt 0.625000 1.000000
vn 0.0000 0.0000 1.0000
vn -1.0000 0.0000 0.0000
vn 0.0000 0.0000 -1.0000
vn 1.0000 0.0000 0.0000
vn 0.0000 -1.0000 0.0000
vn -0.6515 0.7587 0.0000
vn 0.0000 1.0000 0.0000
vn 0.6852 0.7283 0.0000
usemtl Material.002
s off
f 21/40/15 22/41/15 24/42/15 23/43/15
f 23/43/16 24/42/16 28/44/16 27/45/16
f 27/45/17 28/44/17 26/46/17 25/47/17
f 25/47/18 26/46/18 22/48/18 21/49/18
f 23/50/19 27/45/19 25/47/19 21/51/19
f 28/44/20 24/42/20 30/52/20 32/53/20
f 32/53/21 30/54/21 29/55/21 31/56/21
f 26/46/17 28/44/17 32/53/17 31/56/17
f 24/42/15 22/41/15 29/57/15 30/52/15
f 22/48/22 26/46/22 31/56/22 29/58/22
o Neck_Cube.003
v -0.554907 2.106530 0.341961
v -0.554907 4.842218 0.341961
v -1.238829 2.106530 0.341961
v -1.238829 4.842218 0.341961
v -0.554907 2.106530 -0.341961
v -0.554907 4.842218 -0.341961
v -1.238829 2.106530 -0.341961
v -1.238829 4.842218 -0.341961
vt 0.375000 0.000000
vt 0.625000 0.000000
vt 0.625000 0.250000
vt 0.375000 0.250000
vt 0.625000 0.500000
vt 0.375000 0.500000
vt 0.625000 0.750000
vt 0.375000 0.750000
vt 0.625000 1.000000
vt 0.375000 1.000000
vt 0.125000 0.500000
vt 0.125000 0.750000
vt 0.875000 0.500000
vt 0.875000 0.750000
vn 0.0000 0.0000 1.0000
vn -1.0000 0.0000 0.0000
vn 0.0000 0.0000 -1.0000
vn 1.0000 0.0000 0.0000
vn 0.0000 -1.0000 0.0000
vn 0.0000 1.0000 0.0000
usemtl Material.003
s off
f 33/59/23 34/60/23 36/61/23 35/62/23
f 35/62/24 36/61/24 40/63/24 39/64/24
f 39/64/25 40/63/25 38/65/25 37/66/25
f 37/66/26 38/65/26 34/67/26 33/68/26
f 35/69/27 39/64/27 37/66/27 33/70/27
f 40/63/28 36/71/28 34/72/28 38/65/28
o Face_Cube.004
v -0.418486 3.479174 2.051766
v -0.418486 5.188979 2.051766
v -2.128291 3.479174 2.051766
v -2.128291 5.188979 2.051766
v -0.418486 3.479174 -2.051766
v -0.418486 5.188979 -2.051766
v -2.128291 3.479174 -2.051766
v -2.128291 5.188979 -2.051766
vt 0.375000 0.000000
vt 0.625000 0.000000
vt 0.625000 0.250000
vt 0.375000 0.250000
vt 0.625000 0.500000
vt 0.375000 0.500000
vt 0.625000 0.750000
vt 0.375000 0.750000
vt 0.625000 1.000000
vt 0.375000 1.000000
vt 0.125000 0.500000
vt 0.125000 0.750000
vt 0.875000 0.500000
vt 0.875000 0.750000
vn 0.0000 0.0000 1.0000
vn -1.0000 0.0000 0.0000
vn 0.0000 0.0000 -1.0000
vn 1.0000 0.0000 0.0000
vn 0.0000 -1.0000 0.0000
vn 0.0000 1.0000 0.0000
usemtl Material.002
s off
f 41/73/29 42/74/29 44/75/29 43/76/29
f 43/76/30 44/75/30 48/77/30 47/78/30
f 47/78/31 48/77/31 46/79/31 45/80/31
f 45/80/32 46/79/32 42/81/32 41/82/32
f 43/83/33 47/78/33 45/80/33 41/84/33
f 48/77/34 44/85/34 42/86/34 46/79/34
o Left_arm_Cube.005
v 0.583243 1.565584 -3.525386
v -4.592383 -0.208916 -3.525386
v 0.915962 0.595154 -3.525386
v -4.259665 -1.179346 -3.525386
v 0.583243 1.565584 -4.551269
v -4.592383 -0.208916 -4.551269
v 0.915962 0.595154 -4.551269
v -4.259665 -1.179346 -4.551269
vt 0.375000 0.000000
vt 0.625000 0.000000
vt 0.625000 0.250000
vt 0.375000 0.250000
vt 0.625000 0.500000
vt 0.375000 0.500000
vt 0.625000 0.750000
vt 0.375000 0.750000
vt 0.625000 1.000000
vt 0.375000 1.000000
vt 0.125000 0.500000
vt 0.125000 0.750000
vt 0.875000 0.500000
vt 0.875000 0.750000
vn 0.0000 0.0000 1.0000
vn 0.3243 -0.9459 0.0000
vn 0.0000 0.0000 -1.0000
vn -0.3243 0.9459 0.0000
vn 0.9459 0.3243 0.0000
vn -0.9459 -0.3243 0.0000
usemtl Material.001
s off
f 49/87/35 50/88/35 52/89/35 51/90/35
f 51/90/36 52/89/36 56/91/36 55/92/36
f 55/92/37 56/91/37 54/93/37 53/94/37
f 53/94/38 54/93/38 50/95/38 49/96/38
f 51/97/39 55/92/39 53/94/39 49/98/39
f 56/91/40 52/99/40 50/100/40 54/93/40
o Right_arm_Cube.006
v 0.583243 1.565584 4.547853
v -4.592383 -0.208916 4.547853
v 0.915962 0.595154 4.547853
v -4.259665 -1.179346 4.547853
v 0.583243 1.565584 3.521971
v -4.592383 -0.208916 3.521971
v 0.915962 0.595154 3.521971
v -4.259665 -1.179346 3.521971
vt 0.375000 0.000000
vt 0.625000 0.000000
vt 0.625000 0.250000
vt 0.375000 0.250000
vt 0.625000 0.500000
vt 0.375000 0.500000
vt 0.625000 0.750000
vt 0.375000 0.750000
vt 0.625000 1.000000
vt 0.375000 1.000000
vt 0.125000 0.500000
vt 0.125000 0.750000
vt 0.875000 0.500000
vt 0.875000 0.750000
vn 0.0000 0.0000 1.0000
vn 0.3243 -0.9459 0.0000
vn -0.0000 0.0000 -1.0000
vn -0.3243 0.9459 0.0000
vn 0.9459 0.3243 0.0000
vn -0.9459 -0.3243 0.0000
usemtl Material.001
s off
f 57/101/41 58/102/41 60/103/41 59/104/41
f 59/104/42 60/103/42 64/105/42 63/106/42
f 63/106/43 64/105/43 62/107/43 61/108/43
f 61/108/44 62/107/44 58/109/44 57/110/44
f 59/111/45 63/106/45 61/108/45 57/112/45
f 64/105/46 60/113/46 58/114/46 62/107/46
